<svg width="260" height="141" viewBox="0 0 260 141" fill="none" xmlns="http://www.w3.org/2000/svg">
<path d="M252.223 70C252.223 76.8366 248.949 83.4366 242.85 89.5335C236.746 95.6343 227.863 101.174 216.807 105.848C194.699 115.195 164.087 121 130.223 121C96.3577 121 65.746 115.195 43.6378 105.848C32.5817 101.174 23.6991 95.6343 17.5954 89.5335C11.4956 83.4366 8.22253 76.8366 8.22253 70C8.22253 63.1634 11.4956 56.5634 17.5954 50.4665C23.6991 44.3657 32.5817 38.8256 43.6378 34.1515C65.746 24.805 96.3577 19 130.223 19C164.087 19 194.699 24.805 216.807 34.1515C227.863 38.8256 236.746 44.3657 242.85 50.4665C248.949 56.5634 252.223 63.1634 252.223 70Z" stroke="#FF782D" stroke-width="2"/>
<path d="M250.433 52.1807C251.46 59.0298 249.205 66.1169 244.079 73.1096C238.949 80.1071 230.983 86.9488 220.735 93.2414C200.244 105.824 170.8 116.106 137.263 121.055C103.727 126.003 72.5413 124.668 49.2457 118.546C37.596 115.485 27.9681 111.239 21.0076 106.025C14.0519 100.816 9.81609 94.6862 8.7894 87.8371C7.76272 80.9881 10.0173 73.901 15.1439 66.9083C20.2739 59.9108 28.2398 53.069 38.4873 46.7765C58.979 34.1935 88.4229 23.9117 121.959 18.9631C155.496 14.0146 186.681 15.3501 209.977 21.4719C221.627 24.5334 231.254 28.779 238.215 33.9925C245.171 39.2023 249.406 45.3317 250.433 52.1807Z" stroke="#FF782D" stroke-width="2"/>
</svg>
